<svg width="192" height="242" viewBox="0 0 192 242" xmlns="http://www.w3.org/2000/svg">
		<style>
		.bg {
			fill: #161B22;
			stroke: #F0B2BC;
			stroke-width: 6;
			rx: 12px;
		}
		</style>

		<rect x="6" y="6" width="180" height="230" class="bg"/>
		<g><circle cx="90" cy="75" r="45" fill="none" stroke="#21262d" stroke-width="14" />
	<circle
	cx="90" cy="75" r="45"
	fill="none"
	stroke="#58a6ff"
	stroke-width="14"
	stroke-dasharray="275.1092686748582 282.7433388230814"
	stroke-dashoffset="0"
	transform="rotate(-90 90 75)"
	/>
	<g>
	<rect x="30" y="144" width="8" height="8" rx="2" fill="#58a6ff" />
	<text x="46" y="150" font-family="monospace" font-size="10" fill="#58a6ff">C</text>
	<text x="110" y="150" font-family="monospace" font-size="10" fill="#58a6ff">(97.3%)</text>
	</g>
	
	<circle
	cx="90" cy="75" r="45"
	fill="none"
	stroke="#3fb950"
	stroke-width="14"
	stroke-dasharray="4.241150082346224 282.7433388230814"
	stroke-dashoffset="-275.1092686748582"
	transform="rotate(-90 90 75)"
	/>
	<g>
	<rect x="30" y="158" width="8" height="8" rx="2" fill="#3fb950" />
	<text x="46" y="164" font-family="monospace" font-size="10" fill="#3fb950">JavaScript</text>
	<text x="110" y="164" font-family="monospace" font-size="10" fill="#3fb950">(1.5%)</text>
	</g>
	
	<circle
	cx="90" cy="75" r="45"
	fill="none"
	stroke="#d29922"
	stroke-width="14"
	stroke-dasharray="1.9792033717615716 282.7433388230814"
	stroke-dashoffset="-279.3504187572044"
	transform="rotate(-90 90 75)"
	/>
	<g>
	<rect x="30" y="172" width="8" height="8" rx="2" fill="#d29922" />
	<text x="46" y="178" font-family="monospace" font-size="10" fill="#d29922">Makefile</text>
	<text x="110" y="178" font-family="monospace" font-size="10" fill="#d29922">(0.7%)</text>
	</g>
	
	<circle
	cx="90" cy="75" r="45"
	fill="none"
	stroke="#f85149"
	stroke-width="14"
	stroke-dasharray="1.4137166941154082 282.7433388230814"
	stroke-dashoffset="-281.329622128966"
	transform="rotate(-90 90 75)"
	/>
	<g>
	<rect x="30" y="186" width="8" height="8" rx="2" fill="#f85149" />
	<text x="46" y="192" font-family="monospace" font-size="10" fill="#f85149">Assembly</text>
	<text x="110" y="192" font-family="monospace" font-size="10" fill="#f85149">(0.5%)</text>
	</g>
	</g></svg>